<svg width="106" height="62" viewBox="0 0 106 62" fill="none" xmlns="http://www.w3.org/2000/svg">
<g id="Cloud">
<path id="Shadow" d="M94.505 27.851C92.89 12.32 79.762 0.209 63.803 0.209C60.832 0.209 57.963 0.637001 55.245 1.421C67.117 4.853 76.044 15.221 77.357 27.851C83.936 30.417 88.6 36.54 88.6 44.028C88.6 53.777 80.697 61.41 70.948 61.41C80.709 61.41 87.876 61.41 88.095 61.41C97.844 61.41 105.748 53.777 105.748 44.028C105.748 36.54 101.083 30.416 94.505 27.851Z" fill="#F0F0F0"/>
<path id="Cloud_2" d="M91.036 43.674C91.036 36.186 86.372 29.927 79.793 27.361C78.48 14.732 69.553 4.432 57.681 1C52.187 2.583 47.319 5.68 43.545 9.771C41.276 8.886 38.812 8.413 36.23 8.413C25.852 8.413 17.311 16.266 16.202 26.348C7.132 27.087 0 34.411 0 43.671C0 53.42 7.903 61.058 17.653 61.058C18.134 61.058 51.989 61.058 73.383 61.058C83.133 61.056 91.036 53.423 91.036 43.674Z" fill="white"/>
</g>
</svg>
