<svg width="160" height="160" viewBox="0 0 160 160" fill="none" xmlns="http://www.w3.org/2000/svg">
<g id="storm-svgrepo-com 1">
<g id="Cloud">
<path id="Vector" d="M120.253 59.004C118.723 44.293 106.288 32.822 91.172 32.822C88.359 32.822 85.641 33.228 83.067 33.97C94.311 37.221 102.766 47.04 104.01 59.003C110.241 61.433 114.659 67.233 114.659 74.325C114.659 83.558 107.173 90.788 97.94 90.788C107.183 90.788 113.973 90.788 114.181 90.788C123.414 90.788 130.9 83.559 130.9 74.325C130.9 67.235 126.482 61.434 120.253 59.004Z" fill="#F0F0F0"/>
<path id="Vector_2" d="M114.659 74.327C114.659 67.235 110.241 61.306 104.01 58.876C102.766 46.914 94.311 37.159 83.067 33.907C77.864 35.407 73.254 38.341 69.678 42.216C67.53 41.378 65.195 40.929 62.75 40.929C52.92 40.929 44.831 48.367 43.779 57.915C35.19 58.615 28.435 65.552 28.435 74.323C28.435 83.555 35.92 90.79 45.154 90.79C45.61 90.79 77.677 90.79 97.94 90.79C107.173 90.789 114.659 83.56 114.659 74.327Z" fill="white"/>
</g>
<g id="Flash">
<path id="Vector_3" d="M98.475 114.932H91.843L70.852 131.879L68.633 139.168L98.475 114.932Z" fill="#EAC300"/>
<path id="Vector_4" d="M85.396 114.932L94.054 96.932H87.422L78.765 114.932H85.396Z" fill="#EAC300"/>
<path id="Vector_5" d="M68.633 139.09L98.475 114.932H91.843H85.396L94.054 96.932H87.422H70.843L60.896 124.932H66.422H73.054L70.852 131.984L68.633 139.09Z" fill="#F6D100"/>
</g>
</g>
</svg>
